# xmcd CD database file
#
# Track frame offsets:
#	150
#	21547
#	41006
#	68952
#	88405
#	108674
#	130106
#	154855
#	175698
#	202218
#	251866
#	285327
#
# Disc length: 4361 seconds
#
# Revision: 0
# Processed by: cddbd v1.5.2PL0 Copyright (c) Steve Scherf et al.
# Submitted via: CDex 1.70beta2
#
DISCID=b611070c
DTITLE=Constance Demby - Set Free
DYEAR=2006
DGENRE=New Age
TTITLE0=Waltz of Joy
TTITLE1=Tribal Gregorian
TTITLE2=Jungle Jam
TTITLE3=Javalon
TTITLE4=I Set Myself Free
TTITLE5=Moving On
TTITLE6=Mother of the World
TTITLE7=Chambers of the Heart
TTITLE8=Lotus Opening
TTITLE9=Into the Center
TTITLE10=The Galactic Chalice
TTITLE11=Celestial Communion
EXTD=YEAR: 2006
EXTT0=
EXTT1=
EXTT2=
EXTT3=
EXTT4=
EXTT5=
EXTT6=
EXTT7=
EXTT8=
EXTT9=
EXTT10=
EXTT11=
PLAYORDER=
